<?xml version="1.0" encoding="utf-8"?>
<!-- Generator: Adobe Illustrator 21.1.0, SVG Export Plug-In . SVG Version: 6.00 Build 0)  -->
<svg version="1.1" id="Capa_1" xmlns="http://www.w3.org/2000/svg" xmlns:xlink="http://www.w3.org/1999/xlink" x="0px" y="0px"
	 viewBox="0 0 385 385" style="enable-background:new 0 0 385 385;" xml:space="preserve">
<g>
	<path id="Behance" d="M342.6,105.7h-97.5V81.5h97.5V105.7L342.6,105.7z M193.6,205c6.3,9.8,9.4,21.6,9.4,35.5
		c0,14.4-3.5,27.3-10.8,38.6c-4.6,7.5-10.3,13.9-17.1,19c-7.7,5.9-16.8,10-27.3,12.2c-10.5,2.2-21.9,3.2-34.2,3.2H4.7v-242h116.9
		c29.5,0.5,50.3,9,62.7,25.8c7.4,10.3,11.1,22.6,11.1,36.9c0,14.8-3.7,26.6-11.2,35.6c-4.2,5-10.3,9.6-18.4,13.8
		C178,188.1,187.4,195.2,193.6,205z M60.5,166.9h51.2c10.5,0,19-2,25.6-6c6.6-4,9.8-11.1,9.8-21.3c0-11.2-4.3-18.7-13-22.3
		c-7.5-2.5-17-3.8-28.6-3.8H60.5V166.9z M152,237c0-12.6-5.1-21.2-15.4-25.9c-5.7-2.6-13.8-4-24.2-4.1h-52v64.5h51.1
		c10.5,0,18.6-1.4,24.5-4.2C146.7,261.9,152,251.9,152,237z M378.8,197.6c1.2,7.9,1.7,19.4,1.5,34.4H254
		c0.7,17.4,6.7,29.6,18.1,36.6c6.9,4.4,15.2,6.5,25,6.5c10.3,0,18.7-2.6,25.2-7.9c3.5-2.8,6.6-6.9,9.3-11.9h46.3
		c-1.2,10.3-6.8,20.7-16.8,31.3c-15.5,16.8-37.3,25.3-65.2,25.3c-23.1,0-43.4-7.2-61.1-21.4c-17.6-14.2-26.4-37.4-26.4-69.4
		c0-30.1,7.9-53.1,23.9-69.1c16-16.1,36.6-24,62-24c15.1,0,28.6,2.7,40.8,8.1c12.1,5.4,22.1,14,29.9,25.7
		C372.1,172.1,376.6,184,378.8,197.6z M333.2,202.1c-0.8-12-4.9-21.2-12.1-27.4c-7.2-6.3-16.2-9.4-26.9-9.4
		c-11.7,0-20.6,3.3-27.1,9.9c-6.4,6.6-10.4,15.5-12.1,26.9H333.2z"/>
</g>
</svg>
