<?xml version="1.0" encoding="utf-8"?>
<!-- Generator: Adobe Illustrator 21.1.0, SVG Export Plug-In . SVG Version: 6.00 Build 0)  -->
<svg version="1.1" id="レイヤー_1" xmlns="http://www.w3.org/2000/svg" xmlns:xlink="http://www.w3.org/1999/xlink" x="0px"
	 y="0px" viewBox="0 0 960 650" style="enable-background:new 0 0 960 650;" xml:space="preserve">
<style type="text/css">
	.st0{fill:#F46262;}
</style>
<title>アートボード 1</title>
<path class="st0" d="M186.6,250.7c13,0,22.5,3.1,28.7,9.4c6.2,6.3,9.2,14.7,9.2,25.2c0,3.6-0.4,7.1-1.3,10.6
	c-0.8,3.3-2.1,6.4-3.9,9.3c-1.7,2.8-4,5.2-6.7,7.1c-3,2-6.4,3.4-9.9,4.1v0.4c4.1,0.3,8.1,1.5,11.7,3.6c3.2,1.9,5.9,4.5,8,7.5
	c2.1,3,3.6,6.3,4.6,9.8c1,3.5,1.5,7.1,1.5,10.8c0,5.6-0.8,11.2-2.4,16.5c-1.4,4.8-3.9,9.3-7.3,13c-3.6,3.8-8,6.7-12.9,8.5
	c-5.3,2-11.7,3-19.2,3H132V250.7H186.6z M176.9,305.1c3.4,0.2,6.6-1.4,8.6-4.2c2-2.9,3-6.3,2.9-9.8c0.1-3.6-0.9-7.1-2.9-10.1
	c-1.9-2.8-5.1-4.5-8.6-4.3h-8.8v28.4L176.9,305.1z M178.2,363.5c3.4,0,6.7-1.6,8.9-4.2c2.6-2.8,3.9-7.1,3.9-12.9
	c0-5.4-1.3-9.6-3.9-12.4c-2.2-2.7-5.5-4.2-8.9-4.3h-10.1v33.8H178.2z"/>
<path class="st0" d="M325.7,357.2c-0.8,6.2-2.9,12.2-6.1,17.6c-3.3,5.3-8,9.5-13.6,12.2c-5.9,3-13.8,4.6-23.6,4.6
	c-10.2,0-18.3-1.4-24.3-4.2c-5.6-2.4-10.2-6.5-13.4-11.7c-3.1-5.4-5-11.3-5.7-17.5c-0.9-7.1-1.3-14.3-1.3-21.5
	c0-6.8,0.5-13.5,1.5-20.2c0.8-6.2,2.9-12.3,6.1-17.7c3.3-5.3,7.9-9.7,13.5-12.5c5.9-3.2,13.8-4.8,23.6-4.8c10.2,0,18.3,1.5,24.3,4.4
	c5.6,2.6,10.2,6.8,13.4,12c3.1,5.4,5,11.4,5.7,17.6c0.9,7.1,1.3,14.3,1.2,21.4C327.1,343.8,326.6,350.5,325.7,357.2z M273.1,353.2
	c0.1,3.4,0.6,6.7,1.5,10c0.8,2.5,1.8,4.1,3,5c1.4,1,3.1,1.4,4.8,1.4c1.7,0.1,3.4-0.4,4.9-1.4c1.3-0.9,2.3-2.6,3-5
	c0.8-3.3,1.3-6.6,1.5-10c0.3-4.2,0.4-9.6,0.4-16.2c0-6.6-0.1-12.1-0.4-16.3c-0.1-3.4-0.6-6.8-1.5-10.1c-0.7-2.5-1.7-4.1-3-5
	c-1.4-0.9-3.1-1.4-4.9-1.4c-1.7-0.1-3.4,0.4-4.8,1.4c-1.2,0.9-2.2,2.6-3,5c-0.9,3.3-1.4,6.7-1.5,10.1c-0.3,4.3-0.4,9.7-0.4,16.3
	S272.8,349,273.1,353.2L273.1,353.2z"/>
<path class="st0" d="M373,284.4v69.4c0,4.4,0.6,7.6,1.9,9.5c1.3,1.9,3.5,2.9,6.6,2.9c3.1,0,5.3-1,6.6-2.9c1.3-1.9,1.9-5.1,1.9-9.5
	v-69.4h35v105.1h-33.8v-12.8h-0.4c-4.4,10-12.9,15-25.5,15c-3.6,0-7.2-0.3-10.8-1.1c-3.2-0.7-6.2-2.1-8.6-4.3
	c-2.6-2.4-4.6-5.4-5.8-8.8c-1.6-4.5-2.3-9.2-2.1-13.9v-79.3L373,284.4z"/>
<path class="st0" d="M471.9,284.4v16.7h0.4c1.9-6.3,5.1-11.2,9.3-14.5c4-3.2,9-5,14.2-5h5.6v32.6c-1.6-0.3-3-0.5-4.5-0.6
	s-2.9-0.2-4.3-0.2c-6.2,0-11,1.4-14.5,4.1s-5.2,7.6-5.1,14.6v57.4h-35V284.4H471.9z"/>
<path class="st0" d="M543.1,250.7v45.5h0.4c1.8-5.4,4.7-9.2,8.7-11.4c4.1-2.2,8.7-3.3,13.3-3.2c4.7-0.1,9.3,0.8,13.6,2.6
	c4.2,1.9,7.7,4.9,10.1,8.8c2.7,4.1,4.8,9.5,6.3,16.3c1.6,8.4,2.4,16.9,2.2,25.4c0,19.6-2.3,34-7,43.1c-4.7,9.2-12.8,13.8-24.5,13.8
	c-6.2,0-11.2-1.3-15-3.9c-3.8-2.6-6.8-6.8-8.9-12.6h-0.4v14.4h-33.8V250.7H543.1z M543.5,351c0.1,3,0.6,6.1,1.5,9
	c0.5,1.9,1.5,3.5,3,4.8c1.4,0.9,3.1,1.4,4.9,1.4c1.8,0.1,3.5-0.4,5-1.4c1.5-1.2,2.5-2.9,3-4.8c0.8-2.9,1.3-6,1.5-9
	c0.3-3.8,0.4-8.4,0.4-14c0-5.7-0.1-10.4-0.4-14.2c-0.1-3-0.6-6.1-1.5-9c-0.5-1.9-1.5-3.5-3-4.8c-1.5-1-3.3-1.4-5-1.4
	c-1.7-0.1-3.4,0.4-4.9,1.4c-1.5,1.2-2.5,2.9-3,4.8c-0.8,2.9-1.3,6-1.5,9c-0.3,3.8-0.4,8.5-0.4,14.2
	C543.1,342.6,543.2,347.3,543.5,351z"/>
<path class="st0" d="M658.3,383.9c-0.3-1.9-0.5-4-0.8-6.2h-0.4c-1.8,4.5-5,8.2-9.2,10.5c-4.4,2.4-9.4,3.6-14.5,3.5
	c-4.6,0.1-9.2-0.5-13.5-2c-3.5-1.2-6.6-3.3-9-6.1c-2.4-2.8-4.1-6.1-5-9.7c-1.1-4.1-1.6-8.2-1.6-12.4c-0.1-4.3,0.4-8.6,1.5-12.8
	c0.9-3.5,2.5-6.7,4.8-9.4c2.5-2.9,5.5-5.2,8.9-6.8c4.5-2.1,9.2-3.7,14-4.8l13.8-3.3c3.8-0.9,6.4-2.2,8-4s2.4-4.3,2.3-7.5
	c0-6.5-3-9.7-8.9-9.7c-3.4,0-5.8,0.9-7.4,2.8s-2.4,5.6-2.6,11.1h-30.3c0-7.6,1.4-13.8,4.1-18.4c2.5-4.3,5.9-8,10.1-10.7
	c4-2.5,8.4-4.2,13-5c4.3-0.8,8.6-1.2,13-1.3c5.6,0,11.3,0.4,16.8,1.5c4.7,0.8,9.2,2.6,13.2,5.2c3.7,2.6,6.7,6.1,8.5,10.3
	c2,4.3,3,9.9,3,16.8v51.3c0,4.3,0.2,8.7,0.6,13c0.3,3.4,1.2,6.7,2.7,9.7h-33.7C659,387.7,658.6,385.8,658.3,383.9z M655,364.4
	c1.7-2.8,2.5-7.2,2.5-13v-12.7h-0.4c-1.2,1.5-2.9,2.4-4.8,2.6c-2.5,0.4-4.8,1.2-7.1,2.2c-2.4,1-4.4,2.8-5.6,5.1
	c-1.1,2.7-1.7,5.6-1.6,8.5c-0.2,3,0.7,5.9,2.3,8.4c1.4,2,3.8,3.2,6.2,3.1C650.5,368.7,653.3,367.3,655,364.4z"/>
<path class="st0" d="M739.8,250.7v70h0.4l19.4-36.4h37.3l-29.2,43.3l32.8,61.8h-37.3l-17.7-36.1l-5.8,9.1v27h-35V250.7H739.8z"/>
<path class="st0" d="M838.5,250.7v26h-35v-26H838.5z M838.5,284.4v105.1h-35V284.4H838.5z"/>
</svg>
