<svg id="レイヤー_1" data-name="レイヤー 1" xmlns="http://www.w3.org/2000/svg" viewBox="0 0 960 650"><title>アートボード 1</title><path d="M186.6,250.72q19.43,0,28.67,9.43t9.23,25.17a44.34,44.34,0,0,1-1.26,10.59,31.58,31.58,0,0,1-3.89,9.33,24.93,24.93,0,0,1-6.71,7.09,25.4,25.4,0,0,1-9.91,4.08v.39a26.06,26.06,0,0,1,11.66,3.6,26.79,26.79,0,0,1,8,7.48,31.69,31.69,0,0,1,4.57,9.82,40.84,40.84,0,0,1,1.46,10.79A56,56,0,0,1,226.06,365a33.79,33.79,0,0,1-7.29,13,32.8,32.8,0,0,1-12.93,8.46q-8,3-19.24,3H132V250.72Zm-9.72,54.42a9.76,9.76,0,0,0,8.55-4.18,16.71,16.71,0,0,0,2.92-9.82A17.51,17.51,0,0,0,185.43,281a9.7,9.7,0,0,0-8.55-4.28h-8.75v28.38Zm1.36,58.31a11.9,11.9,0,0,0,8.94-4.18q3.89-4.18,3.89-12.92,0-8.16-3.89-12.44a11.8,11.8,0,0,0-8.94-4.28H168.14v33.82Z"/><path d="M325.67,357.23a46.52,46.52,0,0,1-6.12,17.59A33.12,33.12,0,0,1,306,387.07q-8.85,4.56-23.62,4.57-15.36,0-24.3-4.18a29.72,29.72,0,0,1-13.41-11.66A44.53,44.53,0,0,1,239,358.3a171.41,171.41,0,0,1-1.26-21.48,138.79,138.79,0,0,1,1.46-20.21,47.4,47.4,0,0,1,6.12-17.69,34.25,34.25,0,0,1,13.51-12.54q8.84-4.76,23.62-4.76,15.35,0,24.3,4.37a30.72,30.72,0,0,1,13.41,12,45.49,45.49,0,0,1,5.73,17.59A172.06,172.06,0,0,1,327.13,337,138.75,138.75,0,0,1,325.67,357.23Zm-52.58-4a43.21,43.21,0,0,0,1.55,10q1.17,3.7,3,5.05a7.82,7.82,0,0,0,4.76,1.36,8.26,8.26,0,0,0,4.86-1.36q1.94-1.36,3-5.05a48.31,48.31,0,0,0,1.46-10q.39-6.31.39-16.23t-.39-16.33a48.75,48.75,0,0,0-1.46-10.11q-1.07-3.69-3-5.05a8.29,8.29,0,0,0-4.86-1.36,7.83,7.83,0,0,0-4.76,1.36q-1.85,1.36-3,5.05a43.63,43.63,0,0,0-1.55,10.11q-.39,6.41-.39,16.33T273.09,353.25Z"/><path d="M373,284.35v69.39q0,6.61,1.94,9.52t6.61,2.92q4.66,0,6.61-2.92t1.94-9.52V284.35h35V389.5H391.27V376.67h-.39q-6.61,15-25.46,15a51.35,51.35,0,0,1-10.79-1.07,19.11,19.11,0,0,1-8.65-4.28,21.6,21.6,0,0,1-5.83-8.75,38.87,38.87,0,0,1-2.14-13.9v-79.3Z"/><path d="M471.93,284.35v16.72h.39q2.92-9.52,9.33-14.48a22.66,22.66,0,0,1,14.19-5h5.64v32.65q-2.33-.39-4.47-.58t-4.28-.19q-9.33,0-14.48,4.08t-5.15,14.58V389.5h-35V284.35Z"/><path d="M543.07,250.72V296.2h.39q2.72-8.16,8.65-11.37a27.52,27.52,0,0,1,13.31-3.21A33.76,33.76,0,0,1,579,284.25,23.28,23.28,0,0,1,589.13,293q4.08,6.12,6.32,16.33a121.21,121.21,0,0,1,2.24,25.37q0,29.35-7,43.15t-24.49,13.8q-9.33,0-15-3.89t-8.94-12.63h-.39V389.5H508.08V250.72ZM543.46,351a40.25,40.25,0,0,0,1.46,9,8.78,8.78,0,0,0,3,4.76,8.26,8.26,0,0,0,4.86,1.36,8.63,8.63,0,0,0,5.05-1.36,8.81,8.81,0,0,0,3-4.76,40.59,40.59,0,0,0,1.46-9q.39-5.64.39-14,0-8.55-.39-14.19a40.65,40.65,0,0,0-1.46-9,8.83,8.83,0,0,0-3-4.76,8.65,8.65,0,0,0-5.05-1.36,8.28,8.28,0,0,0-4.86,1.36,8.8,8.8,0,0,0-3,4.76,40.31,40.31,0,0,0-1.46,9q-.39,5.64-.39,14.19Q543.07,345.38,543.46,351Z"/><path d="M658.33,383.86q-.39-2.92-.78-6.22h-.39a20.7,20.7,0,0,1-9.23,10.5,29.4,29.4,0,0,1-14.48,3.5,39.26,39.26,0,0,1-13.51-2,21.37,21.37,0,0,1-9-6.12,24.83,24.83,0,0,1-5.05-9.72,46.59,46.59,0,0,1-1.56-12.44,50,50,0,0,1,1.46-12.83,24.46,24.46,0,0,1,4.76-9.43,27.18,27.18,0,0,1,8.94-6.8,64,64,0,0,1,14-4.76l13.8-3.3q5.64-1.36,8-4t2.33-7.48q0-9.72-8.94-9.72-5.06,0-7.39,2.82T638.69,317H608.37q0-11.47,4.08-18.37a30.91,30.91,0,0,1,10.11-10.69,36.39,36.39,0,0,1,13-5.05,73.66,73.66,0,0,1,13-1.26,90.33,90.33,0,0,1,16.81,1.46,34.52,34.52,0,0,1,13.22,5.25,24.81,24.81,0,0,1,8.55,10.3q3,6.51,3,16.81v51.31a128.09,128.09,0,0,0,.58,13,26.7,26.7,0,0,0,2.72,9.72H659.69A27.34,27.34,0,0,1,658.33,383.86ZM655,364.43q2.52-4.27,2.53-13V338.77h-.39a6.83,6.83,0,0,1-4.76,2.62,27.68,27.68,0,0,0-7.09,2.24,11.34,11.34,0,0,0-5.64,5.15,19.48,19.48,0,0,0-1.56,8.46,13.6,13.6,0,0,0,2.33,8.36,7.38,7.38,0,0,0,6.22,3.11Q652.49,368.7,655,364.43Z"/><path d="M739.77,250.72v70h.39l19.44-36.35h37.32l-29.16,43.34L800.6,389.5H763.28L745.6,353.35l-5.83,9.13v27h-35V250.72Z"/><path d="M838.51,250.72v26h-35v-26Zm0,33.63V389.5h-35V284.35Z"/></svg>