<?xml version="1.0" encoding="utf-8"?>
<!-- Generator: Adobe Illustrator 21.1.0, SVG Export Plug-In . SVG Version: 6.00 Build 0)  -->
<svg version="1.1" id="_x31_0" xmlns="http://www.w3.org/2000/svg" xmlns:xlink="http://www.w3.org/1999/xlink" x="0px" y="0px"
	 viewBox="0 0 385 385" style="enable-background:new 0 0 385 385;" xml:space="preserve">
<g>
	<path d="M294.4,68.4c-12.3,0-22.2,9.9-22.2,22.2c0,12.2,9.9,22.2,22.2,22.2c12.3,0,22.2-10,22.2-22.2
		C316.6,78.3,306.7,68.4,294.4,68.4z"/>
	<path d="M192.5,93.5c-54.6,0-99,44.4-99,99s44.4,99.1,99,99.1s99.1-44.4,99.1-99.1C291.5,137.9,247.1,93.5,192.5,93.5z
		 M192.5,260.7c-37.6,0-68.2-30.6-68.2-68.2s30.6-68.2,68.2-68.2s68.2,30.6,68.2,68.2S230.1,260.7,192.5,260.7z"/>
	<path d="M272.9,0.2H112.1C52.1,0.2,3.4,48.9,3.4,108.9l0,0v167.2c0,60,48.7,108.7,108.7,108.7h160.8c60,0,108.7-48.7,108.7-108.7
		V108.9C381.6,48.8,332.9,0.2,272.9,0.2z M343,276.1c0,38.7-31.5,70.1-70.1,70.1H112.1c-38.7,0-70.1-31.5-70.1-70.1V108.9
		c0-38.7,31.4-70.1,70.1-70.1h160.8c38.6,0,70.1,31.5,70.1,70.1L343,276.1L343,276.1z"/>
</g>
</svg>
