<?xml version="1.0" encoding="utf-8"?>
<!-- Generator: Adobe Illustrator 21.1.0, SVG Export Plug-In . SVG Version: 6.00 Build 0)  -->
<svg version="1.1" id="_x31_0" xmlns="http://www.w3.org/2000/svg" xmlns:xlink="http://www.w3.org/1999/xlink" x="0px" y="0px"
	 viewBox="0 0 512 512" style="enable-background:new 0 0 512 512;" xml:space="preserve">
<g>
	<path d="M357.9,131.9c-12.3,0-22.2,9.9-22.2,22.2c0,12.2,9.9,22.2,22.2,22.2c12.3,0,22.2-10,22.2-22.2
		C380.1,141.8,370.2,131.9,357.9,131.9z"/>
	<path d="M256,157c-54.6,0-99,44.4-99,99c0,54.6,44.4,99.1,99,99.1c54.6,0,99.1-44.4,99.1-99.1C355,201.4,310.6,157,256,157z
		 M256,324.2c-37.6,0-68.2-30.6-68.2-68.2c0-37.6,30.6-68.2,68.2-68.2c37.6,0,68.2,30.6,68.2,68.2
		C324.2,293.6,293.6,324.2,256,324.2z"/>
	<path d="M336.4,63.7H175.6c-60,0-108.7,48.7-108.7,108.7h0v167.2c0,60,48.7,108.7,108.7,108.7h160.8c60,0,108.7-48.7,108.7-108.7
		V172.4C445.1,112.3,396.4,63.7,336.4,63.7z M406.5,339.6c0,38.7-31.5,70.1-70.1,70.1H175.6c-38.7,0-70.1-31.5-70.1-70.1V172.4
		c0-38.7,31.4-70.1,70.1-70.1h160.8c38.6,0,70.1,31.5,70.1,70.1V339.6z"/>
</g>
</svg>
